# xmcd
#
# Track frame offsets:
#	150
#	13228
#	28883
#	47547
#	65844
#	83689
#	98310
#	114888
#	132935
#	153515
#	171755
#	188930
#	205158
#	226456
#	247947
#	257387
#	284933
#
# Disc length: 4010 seconds
#
# Revision: 0
# Processed by: cddbd v1.5.2PL0 Copyright (c) Steve Scherf et al.
# Submitted via: dBpowerAMP V4.0
#
DISCID=e40fa811
DTITLE=METAMORFOSI - SAN TON AETO
DYEAR=1900
DGENRE=
TTITLE0=IHSOU EISAI O SOTIRAS MOU
TTITLE1=IHSOU S AGAPO
TTITLE2=THEOS
TTITLE3=ME ELKISE H AGAPI SOU
TTITLE4=STO ONOMA TOU PRIGIPA
TTITLE5=OLH H DOJA
TTITLE6=YPSONO THN AGAPI MOU
TTITLE7=AGGELOI KAI XEROUBEIM
TTITLE8=EISAI TA PANTA GIA MENA
TTITLE9=STON ISKIO TON FTERON SOU
TTITLE10=APO KARDIA SE KARDIA
TTITLE11=S OLOUS THA TO PO
TTITLE12=DOSE MOU ZOH
TTITLE13=SAN TON AETO
TTITLE14=O THEOS MAS GIA PANTA
TTITLE15=DOJA APO OLH TH GH
TTITLE16=DATA
EXTD=Greek Christian Group.
EXTT0=
EXTT1=
EXTT2=
EXTT3=
EXTT4=
EXTT5=
EXTT6=
EXTT7=
EXTT8=
EXTT9=
EXTT10=
EXTT11=
EXTT12=
EXTT13=
EXTT14=
EXTT15=
EXTT16=
PLAYORDER=
